<svg xmlns="http://www.w3.org/2000/svg" width="24" height="24" viewBox="0 0 24 24" fill="none" stroke="currentColor" stroke-width="2" stroke-linecap="round" stroke-linejoin="round" class="lucide lucide-sprout"><path d="M7 20h10"/><path d="M10 20c-.5-2.5-1.2-5-2-7"/><path d="M14 20c.5-2.5 1.2-5 2-7"/><path d="M12 4a2 2 0 0 0-2 2c0 1.1.9 2 2 2h0a2 2 0 0 0 2-2c0-1.1-.9-2-2-2Z"/><path d="M12 8c0 1.1.9 2 2 2h0a2 2 0 0 0 2-2c0-1.1-.9-2-2-2Z"/><path d="M12 8a2 2 0 0 0-2 2c0 1.1.9 2 2 2h0a2 2 0 0 0 2-2c0-1.1-.9-2-2-2Z"/></svg>